<?xml version="1.0" standalone="no"?>
<!DOCTYPE svg PUBLIC "-//W3C//DTD SVG 20010904//EN"
 "http://www.w3.org/TR/2001/REC-SVG-20010904/DTD/svg10.dtd">
<svg version="1.0" xmlns="http://www.w3.org/2000/svg"
 width="416.000000pt" height="234.000000pt" viewBox="0 0 416.000000 234.000000"
 preserveAspectRatio="xMidYMid meet">

<g transform="translate(0.000000,234.000000) scale(0.100000,-0.100000)"
fill="#000000" stroke="none">
<path d="M874 1781 c-123 -75 -224 -383 -225 -682 0 -178 33 -269 114 -308
117 -57 256 4 297 130 16 46 14 44 61 53 l36 6 5 -62 c3 -35 12 -76 19 -91 22
-49 89 -70 142 -46 24 11 39 31 67 88 l17 34 7 -39 c4 -21 17 -51 28 -66 18
-26 25 -28 83 -28 55 0 69 4 112 33 l49 33 30 -33 c27 -28 38 -33 78 -33 51 0
104 23 156 66 l32 28 32 -36 c41 -48 64 -58 131 -58 68 0 120 24 181 85 l43
44 23 -41 c32 -58 92 -88 176 -88 72 0 111 15 169 65 l39 33 32 -38 c39 -47
86 -64 162 -58 44 3 67 11 95 32 41 32 95 110 95 138 0 21 11 27 58 30 l34 3
4 -59 c8 -98 46 -146 115 -146 46 0 82 28 114 88 16 31 23 38 21 22 -3 -14 -7
-41 -11 -61 -4 -29 -18 -46 -70 -88 -146 -119 -225 -232 -225 -323 0 -87 46
-138 125 -138 114 0 197 127 260 395 l21 90 109 75 c117 80 142 110 131 153
-10 40 -32 34 -129 -33 -48 -33 -87 -57 -87 -53 0 5 13 86 29 182 16 96 27
180 24 188 -5 14 -70 18 -89 5 -17 -11 -32 -43 -60 -134 -39 -123 -90 -208
-126 -208 -26 0 -24 78 7 213 13 59 22 114 18 122 -3 10 -19 15 -45 15 -55 0
-80 -29 -103 -118 -18 -67 -21 -72 -46 -72 -15 0 -34 -3 -42 -6 -11 -4 -17 4
-22 28 -16 76 -77 148 -138 163 -33 9 -33 10 -1 48 38 45 82 139 99 209 39
165 -1 268 -105 268 -65 0 -118 -50 -174 -164 -74 -150 -119 -365 -115 -558 2
-108 0 -113 -65 -160 -28 -20 -51 -28 -81 -28 -84 0 -115 55 -115 204 l0 86
98 0 c72 0 103 4 120 16 29 20 44 51 37 74 -6 17 -16 20 -76 20 l-69 0 44 54
c56 69 87 150 87 232 1 107 -46 166 -120 149 -39 -8 -113 -74 -144 -128 -32
-55 -72 -167 -87 -245 l-13 -62 -38 0 -38 0 24 65 c14 36 32 109 41 163 29
176 -9 282 -101 282 -148 0 -277 -300 -292 -678 l-6 -152 -43 -40 c-44 -40
-76 -50 -90 -28 -15 24 -1 160 32 319 3 17 -1 32 -11 43 -22 22 -78 21 -98 -2
-17 -19 -51 -150 -62 -242 -6 -45 -14 -62 -43 -92 -24 -26 -45 -38 -63 -38
-44 0 -44 16 6 266 10 50 15 98 12 107 -9 24 -79 23 -99 0 -8 -10 -30 -65 -48
-121 -41 -127 -93 -214 -124 -210 -19 3 -21 9 -19 53 2 28 10 86 20 130 9 44
17 98 17 120 1 39 0 40 -38 43 -54 5 -81 -23 -103 -110 -18 -71 -22 -74 -82
-81 -20 -2 -26 4 -31 30 -14 63 -59 124 -109 145 -25 11 -47 22 -49 23 -2 2
12 25 31 52 63 88 89 156 102 265 13 112 -36 198 -112 198 -21 0 -52 -9 -69
-19z m70 -107 c11 -28 6 -98 -9 -159 -16 -59 -122 -285 -135 -285 -8 0 -5 28
16 160 26 166 72 300 104 300 10 0 21 -7 24 -16z m1302 -10 c11 -43 -3 -174
-26 -249 -23 -74 -98 -236 -124 -270 -14 -18 -15 -15 -10 45 15 179 70 422
109 478 21 29 43 28 51 -4z m792 -44 c4 -76 -24 -164 -96 -305 -57 -110 -63
-95 -32 83 33 195 71 297 108 290 13 -3 18 -17 20 -68z m-420 -44 c4 -49 -23
-141 -58 -191 -30 -44 -58 -71 -65 -64 -8 8 34 190 55 237 33 73 63 81 68 18z
m-310 -396 l32 0 0 -81 c0 -72 -3 -84 -27 -116 -82 -107 -190 -125 -217 -36
-6 17 4 38 37 85 24 35 59 89 76 121 31 54 34 57 50 43 10 -9 32 -16 49 -16z
m-1418 -50 c0 -43 21 -94 50 -122 22 -20 16 -55 -14 -93 -28 -35 -77 -38 -107
-8 -38 38 -46 138 -16 198 16 34 50 65 69 65 14 0 18 -8 18 -40z m2090 12 c0
-45 18 -94 46 -123 24 -25 25 -30 15 -62 -23 -69 -89 -93 -134 -49 -32 33 -37
144 -8 200 32 63 81 84 81 34z m456 -594 c-36 -114 -65 -163 -96 -163 -37 0
-40 61 -6 119 29 49 114 141 123 132 3 -3 -6 -43 -21 -88z"/>
<path d="M1755 1497 c-36 -30 -39 -88 -7 -120 32 -31 104 -29 137 4 61 63 29
139 -59 139 -32 0 -52 -6 -71 -23z"/>
</g>
</svg>
