<?xml version="1.0" standalone="no"?>
<!DOCTYPE svg PUBLIC "-//W3C//DTD SVG 20010904//EN"
 "http://www.w3.org/TR/2001/REC-SVG-20010904/DTD/svg10.dtd">
<svg version="1.0" xmlns="http://www.w3.org/2000/svg"
 width="530.000000pt" height="298.000000pt" viewBox="0 0 530.000000 298.000000"
 preserveAspectRatio="xMidYMid meet">

<g transform="translate(0.000000,298.000000) scale(0.100000,-0.100000)"
fill="#000000" stroke="none">
<path d="M2435 2029 c-3 -4 -12 -6 -20 -2 -8 3 -15 0 -15 -6 0 -6 -3 -10 -7
-8 -5 1 -10 -2 -12 -8 -2 -5 -14 -20 -27 -31 -12 -12 -20 -25 -16 -28 3 -4 0
-5 -8 -2 -15 6 -40 -33 -40 -61 0 -8 -7 -16 -15 -19 -10 -4 -13 -13 -10 -25 4
-11 2 -19 -5 -19 -6 0 -9 -4 -5 -9 3 -5 -5 -26 -16 -46 -18 -31 -20 -38 -8
-46 9 -5 10 -9 2 -9 -12 0 -29 -38 -25 -54 2 -4 -2 -14 -8 -21 -6 -7 -12 -34
-14 -61 -2 -27 -9 -80 -15 -118 -7 -38 -11 -103 -10 -145 3 -82 -14 -146 -40
-155 -9 -3 -30 -17 -47 -31 l-31 -25 -28 22 c-27 21 -28 22 -20 102 4 45 7 91
8 104 1 12 6 22 10 22 5 0 7 8 6 18 -1 9 0 19 1 22 1 3 3 16 4 30 1 14 5 31 9
37 4 7 3 21 -2 32 -8 15 -19 19 -47 16 -42 -4 -51 -11 -58 -45 -3 -14 -10 -45
-17 -70 -14 -58 -18 -83 -26 -147 -3 -29 -10 -53 -15 -53 -6 0 -7 -7 -4 -16 3
-8 2 -12 -4 -9 -6 3 -10 1 -10 -4 0 -6 -6 -11 -14 -11 -8 0 -16 -6 -19 -14 -9
-22 -59 -26 -84 -6 -12 9 -20 19 -18 22 3 2 6 26 6 52 1 26 6 49 11 52 4 3 5
16 2 30 -4 14 -2 24 5 24 6 0 11 10 11 23 0 12 6 50 13 83 11 50 11 65 1 79
-30 41 -100 -16 -92 -74 2 -17 1 -28 -3 -25 -13 8 -22 -18 -22 -60 1 -23 -1
-33 -4 -23 -4 14 -9 10 -24 -19 -10 -20 -16 -40 -14 -44 2 -4 -5 -16 -15 -28
-11 -12 -20 -24 -20 -27 0 -4 -10 -16 -22 -27 -13 -11 -18 -17 -11 -14 6 4 14
2 18 -3 3 -6 -6 -8 -22 -5 -32 6 -64 41 -55 63 3 8 1 12 -4 8 -6 -3 -11 4 -11
16 -2 17 0 19 7 7 5 -8 10 -12 10 -8 0 3 10 53 21 110 34 163 34 187 0 156
-11 -10 -13 -10 -7 0 5 8 0 12 -12 12 -23 0 -45 -23 -34 -35 4 -5 -2 -5 -13
-1 -11 4 -16 4 -12 0 3 -4 0 -19 -8 -33 -13 -24 -30 -97 -27 -113 1 -4 -6 -7
-16 -7 -54 -3 -72 -6 -72 -14 0 -5 -7 -4 -15 3 -8 7 -15 19 -15 27 0 19 -30
84 -47 101 -7 7 -13 17 -13 21 0 7 -53 41 -65 41 -3 0 -3 -6 1 -12 4 -7 -4 -2
-19 10 -22 21 -24 28 -15 53 6 16 18 34 29 39 10 6 16 17 13 25 -4 8 1 17 9
21 9 3 13 12 10 21 -4 10 -2 14 4 10 14 -9 46 67 59 139 3 18 1 23 -7 18 -9
-5 -9 -3 -3 7 11 18 14 119 4 119 -5 0 -11 -6 -13 -12 -4 -10 -6 -10 -6 -1 -1
6 3 14 8 17 15 9 0 46 -23 59 -26 14 -96 18 -96 5 0 -5 -4 -6 -10 -3 -17 11
-11 -17 8 -32 12 -10 8 -10 -15 2 -29 13 -32 14 -27 0 5 -11 2 -13 -10 -9 -11
4 -19 -2 -26 -20 -5 -14 -15 -26 -21 -26 -8 0 -8 -5 1 -16 11 -12 11 -15 0
-12 -7 2 -15 -3 -18 -11 -2 -8 0 -11 5 -8 5 3 10 -1 10 -9 0 -10 -4 -11 -11
-4 -18 18 -26 11 -26 -27 0 -25 -3 -33 -9 -25 -11 18 -24 -29 -14 -55 3 -10 2
-15 -2 -10 -9 8 -32 -49 -40 -98 -2 -16 -7 -41 -10 -55 -9 -37 -14 -76 -20
-165 -3 -44 -7 -94 -9 -112 -1 -17 2 -29 7 -26 5 3 8 -14 7 -38 -1 -24 -1 -46
0 -49 1 -3 3 -16 6 -30 9 -53 15 -70 25 -70 7 0 6 6 -2 18 -13 15 -12 16 3 3
10 -7 15 -17 12 -22 -3 -5 -1 -9 4 -9 6 0 9 -8 8 -17 0 -11 6 -18 16 -17 9 1
14 -4 12 -11 -6 -14 23 -28 38 -18 7 3 8 1 4 -5 -5 -8 1 -12 16 -11 13 0 35
-2 50 -4 47 -7 158 63 158 100 0 7 5 13 11 13 5 0 8 4 4 9 -3 5 0 13 6 16 5 4
8 14 5 22 -3 8 -1 11 4 8 13 -8 13 8 -1 22 -7 7 -5 10 8 10 10 0 35 3 56 7 21
5 42 5 47 0 5 -5 11 -34 13 -64 2 -36 8 -54 16 -52 7 1 10 -7 7 -21 -3 -16 3
-30 16 -42 25 -21 78 -38 78 -24 0 5 7 9 15 9 23 0 65 49 58 67 -5 11 -3 14 6
9 9 -6 12 -2 10 10 -3 27 11 54 27 54 14 0 18 -11 14 -44 -1 -12 2 -16 12 -11
10 6 10 5 1 -5 -10 -10 -9 -19 5 -42 9 -15 22 -28 29 -28 7 0 13 -6 13 -13 0
-18 98 -6 110 13 4 7 12 10 17 7 12 -8 65 38 55 48 -17 19 36 -16 58 -38 43
-42 122 -55 142 -24 4 6 8 8 8 2 0 -5 8 1 16 15 9 15 13 18 9 6 -5 -16 -3 -17
10 -6 8 7 15 20 16 29 0 11 2 12 6 3 4 -10 9 -9 24 4 14 12 16 20 8 30 -18 22
24 5 57 -22 16 -14 22 -22 14 -18 -8 4 -6 -2 5 -13 11 -10 23 -19 26 -19 3 1
12 -4 20 -10 8 -6 25 -10 39 -10 14 1 28 -3 32 -8 4 -6 12 -5 21 2 8 7 19 12
23 10 18 -4 54 14 48 24 -5 7 -1 9 8 5 15 -5 43 16 49 38 2 6 10 9 18 7 9 -2
12 2 7 13 -3 9 -2 13 3 10 5 -3 12 -1 16 5 11 18 42 11 48 -11 3 -12 10 -18
15 -15 6 3 12 -4 16 -17 3 -13 23 -33 46 -46 33 -19 51 -22 98 -18 31 3 71 9
89 13 35 10 83 47 83 66 0 6 3 8 7 5 3 -4 12 -2 20 4 9 8 17 8 26 0 8 -6 17
-8 21 -4 4 4 4 0 0 -10 -3 -10 -1 -17 6 -17 6 0 8 -4 5 -10 -3 -5 6 -12 20
-16 13 -3 23 -9 21 -13 -2 -3 7 -7 21 -8 14 0 29 -6 32 -11 4 -7 20 -8 44 -3
20 5 37 7 37 4 0 -2 15 6 33 19 17 13 36 23 42 23 5 0 12 11 15 25 4 14 12 24
18 23 16 -4 45 55 37 75 -3 9 -3 13 1 9 4 -4 13 2 21 12 9 14 23 19 53 17 21
-1 42 -4 45 -7 2 -3 5 -26 6 -52 1 -26 6 -47 10 -47 5 0 5 -7 2 -17 -5 -12 -3
-14 7 -8 10 6 12 4 7 -8 -4 -10 5 -27 23 -47 25 -26 31 -29 55 -20 15 6 30 8
35 5 5 -3 12 0 16 6 4 8 3 9 -4 5 -7 -4 -12 -3 -12 2 0 5 9 12 21 15 12 3 18
10 14 17 -3 6 -3 9 2 8 4 -2 8 -1 8 2 1 3 10 15 20 28 11 12 21 27 21 32 1 6
2 16 3 23 1 7 6 4 12 -6 6 -10 9 -27 6 -38 -3 -10 -1 -17 4 -13 5 3 9 1 9 -5
0 -5 -4 -13 -10 -16 -5 -3 -10 -19 -10 -35 0 -16 -5 -32 -10 -35 -6 -4 -7 -11
-4 -17 4 -6 2 -8 -3 -5 -14 9 -65 -32 -57 -45 4 -7 2 -8 -5 -4 -7 5 -22 -3
-37 -19 -13 -14 -24 -23 -24 -19 0 4 -9 -5 -20 -19 -11 -14 -20 -29 -20 -34 0
-4 5 -1 11 7 9 13 10 13 6 0 -2 -8 -10 -14 -16 -12 -13 2 -61 -50 -72 -77 -4
-9 -2 -25 4 -36 9 -18 8 -19 -6 -6 -15 12 -18 10 -28 -15 -17 -47 -21 -97 -7
-88 10 6 10 4 0 -8 -10 -13 -10 -19 2 -31 8 -8 13 -17 10 -19 -12 -13 40 -41
78 -43 45 -2 60 3 93 30 11 9 14 14 8 10 -9 -4 -11 -1 -7 10 6 14 8 14 18 1 9
-12 14 -9 32 18 l21 33 -21 -3 c-15 -3 -14 -2 4 6 14 6 34 23 43 39 20 34 22
45 6 35 -8 -4 -8 0 0 15 7 11 17 21 22 21 7 0 9 10 5 26 -4 16 -3 23 3 19 7
-4 8 0 4 10 -3 10 0 21 7 25 8 5 13 27 13 55 0 29 3 42 8 33 7 -10 9 -10 9 2
0 8 3 26 7 39 5 19 3 22 -8 17 -8 -4 -7 -1 3 6 28 23 28 74 1 63 -15 -5 -16
-4 -5 7 11 11 15 10 25 -2 16 -20 37 -23 37 -6 0 8 5 18 12 22 7 5 9 2 4 -7
-4 -8 -1 -6 8 4 8 11 12 26 9 35 -4 14 -3 15 5 2 6 -8 8 -18 5 -24 -4 -5 6 -1
20 10 15 10 27 23 27 27 0 5 5 5 10 2 14 -8 40 19 40 42 0 15 2 16 10 3 9 -14
11 -13 14 9 0 5 5 13 10 18 5 5 6 3 2 -4 -4 -7 -2 -13 5 -13 6 0 9 8 6 20 -3
10 -2 19 2 18 18 -2 19 4 5 21 -19 22 -51 17 -59 -10 -3 -10 -11 -16 -18 -14
-7 3 -30 -11 -52 -31 -22 -20 -32 -33 -22 -30 11 4 16 2 12 -5 -4 -5 -15 -7
-26 -4 -11 4 -19 2 -19 -5 0 -8 -6 -8 -21 0 -14 8 -17 15 -11 23 5 7 8 22 7
35 -1 12 3 22 9 22 6 0 4 5 -4 10 -9 6 -10 10 -3 10 6 0 12 8 12 18 0 9 2 31
5 47 2 17 4 47 5 68 1 21 5 36 9 33 4 -2 9 22 10 54 2 36 -2 61 -9 66 -8 5
-10 3 -4 -7 6 -11 5 -11 -4 -3 -28 25 -81 -22 -81 -71 0 -8 -4 -15 -8 -15 -5
0 -9 -6 -10 -12 -6 -46 -10 -58 -22 -73 -11 -13 -11 -21 -2 -35 10 -16 9 -18
-5 -13 -11 4 -14 3 -9 -5 4 -7 3 -12 -3 -12 -5 0 -15 -16 -22 -35 -7 -19 -15
-33 -17 -30 -2 2 -14 -8 -27 -22 -20 -25 -72 -42 -58 -20 3 5 -5 18 -18 29
-15 11 -18 16 -6 12 9 -3 17 -1 17 5 0 6 -6 11 -12 11 -8 0 -9 3 -3 8 6 4 11
16 12 27 5 43 9 61 17 74 5 8 3 16 -5 22 -8 5 -9 9 -3 9 11 0 34 92 34 135 0
19 -5 23 -36 22 -50 -2 -82 -51 -87 -137 -3 -35 -26 -54 -70 -58 -38 -4 -72
12 -61 29 9 15 -31 92 -64 125 -23 23 -39 31 -64 30 -42 -1 -49 29 -15 70 54
67 109 184 85 184 -6 0 -4 8 5 18 13 14 14 21 5 30 -9 9 -8 12 4 12 10 0 15 9
15 28 0 15 4 35 8 45 9 21 -13 69 -28 60 -5 -3 -6 3 -2 16 4 13 2 21 -5 21 -6
0 -10 8 -8 17 2 10 -1 18 -7 19 -5 0 -27 4 -47 8 -30 7 -43 4 -68 -14 -16 -12
-28 -26 -24 -31 3 -5 2 -9 -3 -8 -23 4 -33 -5 -57 -47 -29 -52 -31 -58 -14
-48 7 4 8 3 4 -5 -4 -6 -11 -9 -15 -6 -11 6 -33 -44 -25 -56 3 -6 -2 -17 -12
-25 -11 -9 -12 -12 -4 -8 11 5 10 1 -3 -13 -10 -12 -17 -27 -16 -35 1 -7 0
-20 -4 -28 -9 -24 -19 -72 -21 -106 -2 -17 -6 -36 -10 -42 -4 -7 -5 -12 -1
-12 3 0 1 -9 -5 -20 -6 -11 -11 -84 -12 -166 l-1 -147 -38 -37 c-22 -21 -52
-41 -67 -45 -15 -4 -30 -12 -34 -18 -5 -8 -8 -9 -8 -1 0 6 -11 10 -25 9 -39
-5 -62 5 -74 31 -6 14 -16 22 -21 19 -6 -3 -7 1 -4 9 7 19 1 20 -29 5 -21 -10
-22 -10 -2 6 18 14 19 26 16 124 -1 60 1 111 6 114 5 3 47 7 93 8 114 3 168
27 155 68 -4 15 -15 19 -48 19 -110 -1 -117 5 -69 57 41 44 72 91 72 108 0 9
4 17 10 19 10 4 30 118 20 118 -4 0 -7 7 -7 15 0 8 4 15 8 15 4 0 3 13 -2 30
-6 16 -15 27 -20 24 -5 -3 -6 1 -3 9 10 26 -31 43 -92 39 -12 -1 -26 -12 -33
-24 -8 -17 -10 -18 -6 -4 6 19 5 19 -15 1 -11 -10 -20 -22 -20 -27 0 -5 -10
-19 -21 -31 -32 -33 -83 -152 -103 -242 -25 -108 -25 -109 -77 -110 -37 0 -44
3 -47 21 -2 12 7 43 19 69 12 26 22 60 23 76 1 16 5 29 10 29 4 0 6 9 3 20 -3
10 0 21 5 22 13 5 21 156 10 172 -5 6 -9 21 -10 34 -2 40 -81 98 -97 71z m823
-172 c0 -34 -5 -70 -10 -79 -6 -13 -5 -18 4 -19 10 0 10 -2 0 -6 -6 -2 -10 -9
-6 -14 3 -5 1 -9 -5 -9 -6 0 -7 -7 -4 -17 4 -11 3 -14 -5 -9 -7 4 -12 1 -12
-9 0 -9 -13 -43 -30 -77 -16 -33 -27 -65 -23 -71 3 -5 1 -7 -4 -4 -6 4 -16 -6
-22 -23 -5 -17 -11 -34 -13 -38 -5 -14 -33 -42 -41 -42 -11 0 6 201 19 221 3
5 -1 9 -8 9 -9 0 -9 3 2 10 8 5 12 10 8 10 -4 0 -1 19 6 43 7 24 12 50 10 60
-1 9 2 19 7 23 5 3 5 13 -1 24 -7 13 -7 21 2 26 7 4 8 3 4 -4 -4 -7 -3 -12 2
-12 6 0 13 11 16 24 3 14 18 39 32 56 l27 31 22 -21 c19 -18 23 -32 23 -83z
m-2172 78 c-5 -13 -3 -13 18 0 21 14 24 14 39 -3 10 -10 14 -22 10 -25 -3 -4
-2 -7 4 -7 11 0 11 -59 -1 -78 -4 -7 -2 -12 6 -12 9 0 9 -3 -2 -10 -12 -8 -13
-13 -3 -29 10 -17 10 -19 -1 -15 -7 3 -16 -2 -19 -10 -4 -9 -2 -16 4 -16 6 0
3 -7 -6 -16 -11 -11 -13 -19 -6 -23 7 -4 3 -12 -9 -21 -11 -8 -23 -29 -26 -47
-3 -18 -10 -33 -16 -33 -5 0 -6 -4 -3 -10 3 -5 1 -10 -5 -10 -6 0 -8 -4 -5
-10 3 -5 1 -10 -5 -10 -6 0 -8 -4 -5 -10 3 -5 2 -10 -4 -10 -6 0 -8 -7 -5 -15
4 -8 1 -15 -6 -15 -7 0 -10 -7 -6 -16 3 -8 2 -13 -3 -10 -5 3 -14 -1 -21 -9
-17 -21 -42 -8 -29 16 5 11 10 38 9 62 0 48 5 95 13 117 3 8 13 53 23 100 9
47 23 95 30 107 18 28 18 57 2 47 -7 -4 -4 2 7 14 24 25 29 27 21 7z m1360 1
c0 0 10 -18 22 -39 12 -21 18 -36 13 -32 -12 7 -23 -28 -20 -63 2 -15 0 -32
-4 -39 -4 -6 -3 -15 3 -18 7 -4 7 -12 2 -18 -7 -10 -23 -58 -37 -107 -5 -18
-41 -97 -75 -164 -22 -43 -40 -84 -40 -90 0 -7 -9 -12 -21 -12 -18 0 -20 5
-16 33 3 18 2 33 -3 33 -4 0 -10 7 -13 14 -4 11 -1 13 10 9 14 -5 15 0 10 35
-3 26 -1 42 5 42 6 0 8 15 6 35 -2 19 -1 35 2 35 6 0 30 122 32 160 0 8 5 21
11 28 6 8 6 12 -2 12 -8 0 -6 6 4 16 15 15 15 18 -2 38 -11 12 -12 16 -3 9 13
-10 20 -3 44 43 24 46 32 53 50 48 11 -4 21 -7 22 -8z m380 -78 c4 -6 7 -31 7
-54 0 -24 4 -41 9 -38 4 3 8 0 8 -5 0 -6 -4 -11 -9 -11 -5 0 -13 -10 -16 -22
-12 -45 -68 -147 -76 -142 -5 3 -9 -2 -9 -10 0 -17 -38 -41 -48 -31 -9 9 -10
69 -1 75 4 3 9 23 11 45 2 22 7 45 10 50 8 14 32 98 30 108 -1 4 3 7 10 7 6 0
8 3 5 7 -9 8 24 32 45 33 9 0 20 -5 24 -12z m-1842 -236 c3 -5 -1 -9 -9 -9 -8
0 -12 4 -9 9 3 4 7 8 9 8 2 0 6 -4 9 -8z m1479 -176 c-4 -5 1 -7 10 -3 10 4
17 2 17 -4 0 -6 6 -9 13 -6 6 2 22 1 35 -4 21 -8 22 -14 22 -99 0 -57 -4 -90
-11 -90 -5 0 -7 -5 -3 -12 4 -7 3 -8 -4 -4 -13 8 -35 -28 -24 -39 4 -5 1 -5
-6 -1 -7 4 -15 1 -18 -8 -3 -8 -15 -18 -26 -22 -15 -4 -17 -8 -8 -14 7 -5 -2
-10 -26 -14 -28 -6 -34 -10 -23 -17 8 -5 9 -9 4 -9 -6 0 -17 6 -23 12 -10 10
-15 10 -23 -2 -8 -11 -12 -12 -16 -2 -2 6 -11 12 -18 12 -7 0 -28 19 -46 43
-19 23 -25 35 -14 27 10 -8 16 -10 12 -4 -8 14 11 74 24 74 5 0 9 7 9 15 0 8
5 15 12 15 6 0 9 3 6 6 -4 3 3 15 14 26 11 11 17 26 14 34 -4 10 -2 12 6 8 8
-5 9 -2 5 9 -4 10 -2 16 6 14 7 -1 12 8 11 20 0 12 3 20 6 18 4 -2 17 10 30
27 17 23 24 27 31 17 4 -7 5 -17 2 -23z m-1480 -23 c-3 -7 -6 -13 -8 -13 -2 0
-5 6 -8 13 -3 8 1 14 8 14 7 0 11 -6 8 -14z m2217 -44 c0 -48 24 -119 39 -119
4 0 16 -7 27 -16 10 -8 13 -13 7 -9 -12 6 -17 -13 -16 -67 0 -10 -2 -16 -5
-14 -2 3 -14 -4 -25 -15 -49 -45 -106 -35 -144 25 -14 21 -19 35 -13 31 9 -6
9 -2 2 12 -13 24 -1 117 21 157 9 16 13 34 10 39 -3 6 -1 7 6 3 6 -4 17 -3 24
2 10 9 35 17 60 21 4 0 7 -22 7 -50z m-2160 31 c8 6 27 10 42 10 26 0 27 -1
23 -50 -2 -30 0 -48 5 -45 6 3 7 -1 4 -9 -4 -10 1 -18 11 -22 11 -5 13 -9 5
-14 -7 -5 -6 -11 6 -21 16 -12 17 -12 9 1 -6 11 -5 12 4 4 14 -13 23 -87 10
-78 -6 3 -8 -6 -5 -20 3 -15 1 -24 -5 -21 -9 6 -41 -19 -34 -27 2 -2 -8 -5
-23 -6 -15 -1 -37 -4 -49 -6 -14 -3 -22 0 -20 7 1 7 -4 11 -10 10 -7 -2 -13 4
-13 12 0 8 -5 15 -11 15 -5 0 -7 -6 -3 -12 4 -7 3 -9 -2 -5 -4 4 -7 24 -5 43
1 18 -2 34 -8 34 -6 0 -7 17 -4 43 3 23 6 56 7 74 0 17 4 29 9 26 6 -4 11 12
8 30 0 4 5 6 12 5 7 -2 11 5 9 17 -2 13 0 16 5 8 6 -8 14 -9 23 -3z m-60 -20
c0 -5 -2 -10 -4 -10 -3 0 -8 5 -11 10 -3 6 -1 10 4 10 6 0 11 -4 11 -10z m490
-96 c0 -8 -19 -13 -24 -6 -3 5 1 9 9 9 8 0 15 -2 15 -3z m1583 -89 c-7 -21
-12 -19 -10 4 0 11 5 18 9 15 4 -3 5 -11 1 -19z m-1140 -41 c-7 -18 -12 -13
-18 16 -3 18 -2 20 10 10 8 -6 11 -18 8 -26z m-823 -89 c-7 -9 -15 -13 -19
-10 -3 3 1 10 9 15 21 14 24 12 10 -5z m574 -11 c3 -8 2 -12 -4 -9 -6 3 -10
10 -10 16 0 14 7 11 14 -7z m2101 7 c3 -5 2 -12 -3 -15 -5 -3 -9 1 -9 9 0 17
3 19 12 6z m-1750 -30 c3 -5 2 -12 -3 -15 -5 -3 -9 1 -9 9 0 17 3 19 12 6z
m1661 -159 c-3 -5 -7 -27 -10 -51 -2 -23 -7 -45 -10 -48 -3 -4 2 -12 12 -19
11 -8 19 -9 23 -2 4 6 7 -2 7 -16 0 -26 -1 -26 -15 -6 -14 19 -42 28 -44 13 0
-7 -4 -23 -9 -48 -5 -20 0 -36 9 -31 14 9 6 -23 -9 -37 -12 -10 -12 -9 -2 5
10 12 10 18 1 23 -11 7 -61 -44 -53 -56 1 -3 -2 -6 -9 -7 -7 -1 -23 -3 -37 -4
-19 -2 -25 2 -25 17 0 11 -5 19 -12 18 -8 -2 -9 6 -1 30 5 17 12 41 15 52 3
11 13 29 22 39 13 16 13 18 1 11 -8 -5 2 9 23 30 20 22 37 45 37 53 0 7 4 11
8 8 13 -8 54 33 46 46 -4 6 2 6 15 -2 12 -6 19 -14 17 -18z m-171 -91 c-9 -8
-36 -10 -30 -2 2 4 11 8 20 8 8 0 13 -3 10 -6z m-18 -36 c0 -8 -4 -12 -9 -9
-5 3 -6 10 -3 15 9 13 12 11 12 -6z m178 -45 c-3 -5 -12 -10 -18 -10 -7 0 -6
4 3 10 19 12 23 12 15 0z m-185 -134 c0 -2 -7 -7 -16 -10 -8 -3 -12 -2 -9 4 6
10 25 14 25 6z"/>
<path d="M2006 1749 c5 -8 -18 -14 -39 -10 -5 1 -6 -3 -3 -8 3 -5 0 -11 -8
-14 -19 -8 -25 -51 -10 -78 7 -13 13 -20 14 -15 0 5 6 4 13 -2 14 -12 87 -12
87 0 0 4 7 8 15 8 8 0 16 5 16 10 3 19 4 25 10 35 3 6 4 16 3 23 -1 6 -2 16
-3 22 0 5 -10 14 -21 20 -25 13 -81 20 -74 9z"/>
</g>
</svg>
