<?xml version="1.0" standalone="no"?>
<!DOCTYPE svg PUBLIC "-//W3C//DTD SVG 20010904//EN"
 "http://www.w3.org/TR/2001/REC-SVG-20010904/DTD/svg10.dtd">
<svg version="1.0" xmlns="http://www.w3.org/2000/svg"
 width="531.000000pt" height="299.000000pt" viewBox="0 0 531.000000 299.000000"
 preserveAspectRatio="xMidYMid meet">

<g transform="translate(0.000000,299.000000) scale(0.100000,-0.100000)"
fill="#E55982" stroke="none">
<path d="M1104 2039 c-102 -29 -200 -239 -239 -510 -36 -253 -5 -425 86 -486
111 -73 254 -14 309 128 17 42 19 44 64 47 l46 3 0 -54 c0 -104 55 -170 125
-153 38 10 82 59 96 107 15 49 29 50 29 2 0 -48 32 -101 65 -109 46 -11 113 6
158 40 l42 33 30 -34 c56 -63 149 -52 234 26 l41 38 21 -34 c31 -50 90 -77
155 -70 65 7 99 24 160 83 43 43 49 45 58 29 48 -82 122 -121 210 -112 62 6
103 25 154 72 l38 33 23 -33 c28 -42 94 -75 147 -75 84 1 177 75 207 164 13
39 15 41 60 44 l47 3 0 -56 c0 -177 150 -210 227 -50 l25 50 -6 -65 c-6 -63
-8 -66 -59 -109 -165 -141 -247 -257 -247 -349 0 -110 97 -160 202 -106 63 33
125 156 171 340 l31 127 112 74 c120 80 146 112 124 152 -6 12 -17 21 -24 21
-7 0 -52 -27 -99 -60 -48 -33 -88 -60 -90 -60 -2 0 9 75 24 168 16 92 29 179
29 195 0 25 -3 27 -39 27 -22 0 -46 -7 -54 -15 -8 -8 -29 -58 -47 -112 -37
-115 -74 -187 -109 -214 -22 -17 -26 -18 -39 -5 -13 13 -14 27 -2 102 7 47 19
109 26 138 8 28 14 63 14 79 0 25 -3 27 -44 27 -56 0 -78 -25 -97 -111 -14
-65 -24 -75 -78 -80 -33 -4 -34 -3 -46 43 -19 78 -90 148 -149 148 -20 0 -21
14 -1 30 27 22 84 128 106 196 29 90 31 198 3 244 -41 71 -116 75 -186 12
-110 -99 -213 -473 -195 -708 l5 -72 -36 -35 c-48 -45 -75 -58 -121 -59 -85
-1 -113 48 -115 197 l-1 100 107 5 c119 6 148 20 148 72 l0 28 -75 0 c-41 0
-75 3 -75 6 0 4 18 27 41 51 82 89 119 228 84 319 -19 49 -38 64 -85 64 -104
0 -207 -157 -250 -382 l-11 -58 -46 0 c-32 0 -43 4 -39 13 57 138 86 296 72
391 -22 141 -158 151 -245 16 -85 -131 -140 -345 -150 -587 -6 -147 -7 -153
-33 -180 -15 -15 -41 -36 -57 -46 -29 -17 -31 -17 -51 3 -26 26 -25 46 7 218
22 122 24 145 12 153 -22 14 -85 10 -99 -6 -17 -20 -49 -148 -56 -227 -6 -61
-10 -70 -48 -106 -50 -48 -71 -56 -91 -36 -20 21 -20 27 16 203 17 84 28 159
25 167 -7 18 -80 19 -95 0 -6 -8 -25 -56 -41 -107 -38 -118 -77 -196 -113
-223 -24 -18 -29 -19 -37 -6 -15 23 -12 66 15 195 33 161 34 155 -18 155 -56
0 -74 -19 -98 -106 -10 -37 -21 -69 -23 -72 -13 -12 -88 -19 -91 -8 -28 104
-80 170 -140 182 -19 3 -35 8 -35 10 0 2 15 25 34 51 72 102 107 202 108 311
0 80 -18 124 -62 147 -32 17 -41 17 -86 4z m2150 -177 c0 -31 -8 -83 -18 -115
-21 -64 -131 -297 -141 -297 -4 0 -4 24 -1 53 27 218 70 391 108 429 19 19 21
19 37 4 11 -12 16 -34 15 -74z m-2108 66 c13 -21 6 -126 -11 -180 -22 -65
-107 -245 -128 -273 l-16 -20 -1 20 c0 11 7 65 15 120 30 206 76 345 114 345
11 0 23 -5 27 -12z m1310 -14 c11 -43 -3 -174 -26 -249 -26 -84 -126 -295
-140 -295 -5 0 -8 12 -5 28 2 15 7 61 10 102 11 139 64 360 101 418 20 31 52
29 60 -4z m372 -97 c2 -27 -4 -71 -13 -98 -19 -58 -106 -181 -113 -160 -12 35
40 237 74 289 25 38 49 25 52 -31z m-317 -387 l44 -5 0 -83 0 -84 -40 -42
c-60 -62 -80 -77 -117 -85 -47 -11 -76 3 -94 44 -14 35 -14 35 40 117 29 46
66 105 81 133 24 41 29 46 35 30 5 -15 19 -21 51 -25z m-1415 -59 c2 -51 14
-82 46 -118 26 -28 18 -65 -22 -104 -82 -82 -168 35 -129 175 12 45 58 96 86
96 15 0 18 -9 19 -49z m2102 5 c0 -48 27 -115 49 -123 36 -14 -10 -110 -60
-127 -70 -25 -126 86 -97 193 13 50 58 101 88 101 17 0 20 -7 20 -44z m457
-570 c-31 -108 -58 -161 -91 -183 -25 -16 -27 -16 -40 2 -32 43 0 119 87 211
34 35 64 63 66 61 2 -2 -8 -43 -22 -91z"/>
<path d="M1973 1750 c-61 -37 -56 -116 9 -137 56 -18 106 -1 125 44 19 46 10
79 -27 98 -39 20 -68 19 -107 -5z"/>
</g>
</svg>
